<?xml version="1.0" encoding="UTF-8" standalone="no"?>
<!-- Created with Inkscape (http://www.inkscape.org/) -->

<svg
   width="500"
   height="500"
   viewBox="0 0 132.29166 132.29167"
   version="1.1"
   id="svg1"
   xml:space="preserve"
   inkscape:version="1.3 (0e150ed6c4, 2023-07-21)"
   sodipodi:docname="logo.svg"
   inkscape:export-filename="pattern.jpg"
   inkscape:export-xdpi="96"
   inkscape:export-ydpi="96"
   xmlns:inkscape="http://www.inkscape.org/namespaces/inkscape"
   xmlns:sodipodi="http://sodipodi.sourceforge.net/DTD/sodipodi-0.dtd"
   xmlns="http://www.w3.org/2000/svg"
   xmlns:svg="http://www.w3.org/2000/svg"><sodipodi:namedview
     id="namedview1"
     pagecolor="#ffffff"
     bordercolor="#000000"
     borderopacity="0.25"
     inkscape:showpageshadow="2"
     inkscape:pageopacity="0.0"
     inkscape:pagecheckerboard="0"
     inkscape:deskcolor="#d1d1d1"
     inkscape:document-units="mm"
     inkscape:zoom="0.57103675"
     inkscape:cx="941.27041"
     inkscape:cy="21.89001"
     inkscape:window-width="1680"
     inkscape:window-height="987"
     inkscape:window-x="-8"
     inkscape:window-y="-8"
     inkscape:window-maximized="1"
     inkscape:current-layer="layer1" /><defs
     id="defs1" /><g
     inkscape:label="Layer 1"
     inkscape:groupmode="layer"
     id="layer1"><g
       id="g1"
       transform="matrix(0.51551803,0,0,0.51551803,43.841716,16.243694)"><path
         style="opacity:1;fill:#000000;fill-opacity:1;stroke-width:0.264583"
         d="m 9.2666679,-27.591682 c 0,0 22.4426421,2.457222 46.8510641,28.176164 24.408421,25.718942 20.968308,62.904925 40.626096,68.147005 7.207852,1.80196 12.122302,-11.79468 11.139412,-24.080794 0.16382,-0.163817 10.9756,31.288644 -10.975596,39.315574 0,0 12.286116,16.217683 34.728766,-4.423 0,0 -6.88023,24.736053 -20.14924,29.159053 0,0 16.05386,6.06116 20.8045,23.58935 -0.32763,0.16382 -9.8289,-10.15652 -26.53802,-10.9756 0,-0.16381 4.07394,8.48799 16.12075,15.09056 12.0468,6.60258 16.79602,15.40601 19.34438,29.30617 -0.23167,0 -8.91927,-16.56436 -28.84282,-13.20515 0,0 15.29017,14.59516 6.48674,32.54953 -0.11584,0 -1.85336,-1.27418 -3.24337,-4.28588 -1.39002,-3.0117 -4.63339,-12.16264 -22.58776,-17.14353 -11.467626,-3.24337 -16.448516,-5.79173 -20.850233,-11.12012 0,-0.11584 2.664196,9.84594 11.467629,16.10101 8.803431,6.25507 28.821094,21.50967 31.114504,53.45357 -0.16381,0.16383 -4.423,-29.97812 -50.618809,-51.11024 -24.572235,-10.9756 -43.741404,-30.02781 -42.814727,-49.02468 0.231669,-5.3284 1.390015,-6.95008 3.88046,-5.50215 2.490445,1.44793 4.980889,2.54836 10.772621,4.05421 5.791731,1.50585 9.035102,0.52126 10.540952,-0.28959 1.505849,-0.81084 3.822541,-3.3592 3.880458,-5.56006 0.05792,-2.20086 -0.810842,-8.22426 0.984597,-10.01969 1.795436,-1.79544 3.475037,-3.47504 2.548361,-4.633393 -0.926677,-1.15834 -3.532958,-4.05421 -2.027105,-4.86505 1.505849,-0.81085 6.776325,-2.49045 2.490443,-8.05051 -4.285882,-5.56006 -4.11213,-6.77633 -1.27418,-7.18175 2.837947,-0.40542 7.645085,-0.46333 6.718408,-5.21256 -0.926677,-4.74922 -5.386311,-5.56006 -10.019697,-11.17804 -4.633383,-5.61798 -8.571761,-11.75721 -7.007994,-22.182331 1.563766,-10.425115 -0.752925,-28.726987 -18.475624,-42.858813 0,0 4.517551,16.216849 -13.320982,28.379485 -17.838534,12.162637 -34.055383,38.572929 -13.205148,58.148989 0,0.3475 -14.942669,-9.15094 -16.564353,-30.00117 C -20.370533,34.12465 -9.482078,26.942903 1.1747079,13.969424 11.831494,0.995946 13.684848,-18.695941 0.711369,-28.65772 c 0,-0.23167 8.5552989,1.066038 8.5552989,1.066038 z"
         id="path3" /><path
         style="opacity:1;fill:#000000;fill-opacity:1;stroke-width:0.264583"
         d="m -26.973107,79.415997 c 0,0 1.592921,-5.27862 -1.191932,-15.27133 -2.784853,-9.99271 -3.52202,-16.54531 -0.245721,-24.244608 3.276298,-7.699301 8.518374,-18.511083 16.70912,-25.391311 8.190745,-6.880224 19.0025291,-27.684719 0,-41.936615 -0.32763,0 6.224966,10.64797 3.112483,19.166344 -3.112483,8.518374 -9.009821,15.398602 -19.166344,23.589347 -10.156523,8.190744 -15.72623,21.623568 -13.760453,29.486683 1.96578,7.86311 2.62104,8.846 8.026932,17.69201 5.40589,8.846 6.515915,16.90948 6.515915,16.90948 z"
         id="path4" /><path
         style="opacity:1;fill:#000000;fill-opacity:1;stroke-width:0.264583"
         d="m 15.962602,50.855187 c 0,0 2.682469,2.39579 4.853017,3.66535 2.170548,1.26957 5.078262,2.62104 7.781208,2.98963 -0.04095,0.0819 -1.392427,-0.98289 -1.638149,-1.84292 -0.04095,0 3.235344,1.96578 6.511643,1.63815 -0.04095,0.0819 -1.474335,-0.45049 -2.252455,-0.94194 0,0.041 2.41627,0.28668 4.996354,-1.18766 0.08191,-0.20477 -0.778121,-0.36858 -1.351473,-0.49144 0.163815,0.0819 1.801964,-0.5324 1.965779,-1.51529 -0.04095,0.0409 -1.023843,-0.28668 -1.474334,-0.5324 0.08191,0.041 0.98289,-0.73717 1.105751,-1.26956 -0.04095,0.12286 -1.228612,-0.45049 -2.375316,0 -1.146705,0.45049 -2.825808,1.96578 -4.136327,2.08864 -1.310519,0.12286 -6.26592,-0.24573 -9.419357,-1.88387 -3.153437,-1.63815 -5.446846,-1.67911 -4.566341,-0.71669 z"
         id="path5" /></g></g></svg>
